<?xml version="1.0" encoding="UTF-8" standalone="no" ?>
<!DOCTYPE svg PUBLIC "-//W3C//DTD SVG 1.1//EN" "http://www.w3.org/Graphics/SVG/1.1/DTD/svg11.dtd">
<svg xmlns="http://www.w3.org/2000/svg" xmlns:xlink="http://www.w3.org/1999/xlink" version="1.1" width="1080" height="1080" viewBox="0 0 1080 1080" xml:space="preserve">
<desc>Created with Fabric.js 5.2.4</desc>
<defs>
</defs>
<g transform="matrix(1 0 0 1 540 540)" id="db64d366-2007-455d-8bb0-f52cf1148aab"  >
<rect style="stroke: none; stroke-width: 1; stroke-dasharray: none; stroke-linecap: butt; stroke-dashoffset: 0; stroke-linejoin: miter; stroke-miterlimit: 4; fill: rgb(255,255,255); fill-rule: nonzero; opacity: 1; visibility: hidden;" vector-effect="non-scaling-stroke"  x="-540" y="-540" rx="0" ry="0" width="1080" height="1080" />
</g>
<g transform="matrix(1 0 0 1 540 540)" id="e5d7d193-951c-4b82-9e80-6ae526384efb"  >
</g>
<g transform="matrix(1 0 0 1 540 217.4)" id="XMLID_1423_"  >
<path style="stroke: rgb(0,0,0); stroke-width: 0; stroke-dasharray: none; stroke-linecap: butt; stroke-dashoffset: 0; stroke-linejoin: miter; stroke-miterlimit: 4; fill: rgb(51,51,51); fill-opacity: 0.04; fill-rule: nonzero; opacity: 1;" vector-effect="non-scaling-stroke"  transform=" translate(-224.45, -224.45)" d="M 110.646 307.839 C 110.646 311.705 107.512 314.839 103.646 314.839 L 101.78 314.839 C 97.914 314.839 94.78 311.705 94.78 307.839 C 94.78 303.973 97.914 300.839 101.78 300.839 L 103.646 300.839 C 107.512 300.839 110.646 303.973 110.646 307.839 z M 67.648 243.445 L 65.783 243.445 C 61.917 243.445 58.783 246.57899999999998 58.783 250.445 C 58.783 254.311 61.917 257.445 65.783 257.445 L 67.648 257.445 C 71.514 257.445 74.648 254.311 74.648 250.445 C 74.648 246.57899999999998 71.515 243.445 67.648 243.445 z M 135.299 186.951 L 133.43200000000002 186.951 C 129.566 186.951 126.43200000000002 190.08499999999998 126.43200000000002 193.951 C 126.43200000000002 197.817 129.566 200.951 133.43200000000002 200.951 L 135.299 200.951 C 139.16500000000002 200.951 142.299 197.817 142.299 193.951 C 142.299 190.084 139.165 186.951 135.299 186.951 z M 178.345 95.274 L 176.481 95.274 C 172.61499999999998 95.274 169.481 98.408 169.481 102.274 C 169.481 106.14 172.61499999999998 109.274 176.481 109.274 L 178.345 109.274 C 182.211 109.274 185.345 106.14 185.345 102.274 C 185.345 98.409 182.211 95.274 178.345 95.274 z M 265.215 173.492 C 265.215 161.12699999999998 275.277 151.06699999999998 287.643 151.06699999999998 C 300.008 151.06699999999998 310.068 161.12699999999998 310.068 173.492 C 310.068 185.858 300.008 195.91799999999998 287.643 195.91799999999998 C 275.276 195.917 265.215 185.857 265.215 173.492 z M 279.215 173.492 C 279.215 178.13799999999998 282.99499999999995 181.91799999999998 287.643 181.91799999999998 C 292.289 181.91799999999998 296.068 178.13799999999998 296.068 173.492 C 296.068 168.846 292.289 165.06699999999998 287.643 165.06699999999998 C 282.995 165.066 279.215 168.846 279.215 173.492 z M 128.421 154.241 C 128.421 166.60700000000003 118.35999999999999 176.667 105.994 176.667 C 93.62800000000001 176.667 83.56700000000001 166.607 83.56700000000001 154.241 C 83.56700000000001 141.87500000000003 93.62800000000001 131.81500000000003 105.994 131.81500000000003 C 118.35999999999999 131.81500000000003 128.421 141.875 128.421 154.241 z M 114.421 154.241 C 114.421 149.59500000000003 110.641 145.81500000000003 105.994 145.81500000000003 C 101.347 145.81500000000003 97.56700000000001 149.59500000000003 97.56700000000001 154.241 C 97.56700000000001 158.887 101.34700000000001 162.667 105.994 162.667 C 110.64099999999999 162.667 114.421 158.887 114.421 154.241 z M 75.207 186.951 L 73.341 186.951 C 69.475 186.951 66.341 190.08499999999998 66.341 193.951 C 66.341 197.817 69.475 200.951 73.341 200.951 L 75.207 200.951 C 79.073 200.951 82.207 197.817 82.207 193.951 C 82.207 190.084 79.073 186.951 75.207 186.951 z M 212.961 109.274 L 214.82700000000003 109.274 C 218.69300000000004 109.274 221.82700000000003 106.14 221.82700000000003 102.274 C 221.82700000000003 98.408 218.69300000000004 95.274 214.82700000000003 95.274 L 212.961 95.274 C 209.095 95.274 205.961 98.408 205.961 102.274 C 205.961 106.141 209.095 109.274 212.961 109.274 z M 362.357 300.713 C 363.38300000000004 301.242 364.48 301.493 365.56 301.493 C 368.096 301.493 370.543 300.11 371.787 297.701 L 372.642 296.043 C 374.414 292.607 373.067 288.385 369.63 286.612 C 366.194 284.839 361.973 286.189 360.2 289.624 L 359.34499999999997 291.28200000000004 C 357.573 294.718 358.921 298.94 362.357 300.713 z M 296.04 380.534 C 297.89500000000004 383.74899999999997 296.91200000000003 387.824 293.867 389.854 C 293.65000000000003 390.015 293.423 390.164 293.183 390.30199999999996 C 263.64799999999997 407.316 229.922 416.308 195.652 416.308 C 160.31199999999998 416.308 127.12699999999998 406.887 98.48099999999998 390.429 C 98.25899999999999 390.33 98.04099999999998 390.219 97.82599999999998 390.09499999999997 C 97.60399999999998 389.967 97.39099999999998 389.828 97.18899999999998 389.67999999999995 C 39.101 355.713 0 292.666 0 220.657 C 0 148.646 39.1 85.6 97.188 51.632 C 97.391 51.483999999999995 97.604 51.345 97.827 51.216 C 98.04299999999999 51.092 98.262 50.980000000000004 98.483 50.882 C 127.129 34.424 160.313 25.003999999999998 195.65300000000002 25.003999999999998 C 230.99300000000005 25.003999999999998 264.177 34.423 292.822 50.881 C 293.045 50.98 293.263 51.091 293.478 51.216 C 293.701 51.344 293.913 51.483000000000004 294.116 51.631 C 352.205 85.599 391.306 148.64600000000002 391.306 220.655 L 391.306 220.655 L 391.306 220.656 C 391.306 224.52200000000002 388.17199999999997 227.656 384.306 227.656 L 225.305 227.656 C 225.256 227.656 225.207 227.656 225.15900000000002 227.655 L 207.75100000000003 227.655 L 216.06200000000004 242.112 C 216.23500000000004 242.341 216.39500000000004 242.583 216.54200000000003 242.838 L 296.04 380.534 z M 280.067 381.543 L 189.584 224.144 C 188.339 221.978 188.342 219.312 189.594 217.149 C 190.845 214.986 193.155 213.655 195.653 213.655 L 348.51300000000003 213.655 C 346.6 171.766 327.581 132.42700000000002 295.67100000000005 104.843 C 292.74600000000004 102.315 292.42500000000007 97.894 294.95300000000003 94.96900000000001 C 297.482 92.043 301.90000000000003 91.721 304.82700000000006 94.251 C 339.81700000000006 124.498 360.60400000000004 167.692 362.52600000000007 213.654 L 377.1720000000001 213.654 C 374.82400000000007 151.952 341.5520000000001 98.03999999999999 292.4480000000001 66.99600000000001 L 216.5410000000001 198.47400000000002 C 214.60800000000012 201.82200000000003 210.3270000000001 202.97000000000003 206.97800000000012 201.03600000000003 C 203.6300000000001 199.10300000000004 202.48300000000012 194.82200000000003 204.41500000000013 191.47400000000002 L 266.03300000000013 84.74500000000002 C 244.39800000000014 73.53300000000002 220.20700000000014 67.63400000000001 195.65000000000015 67.63400000000001 C 177.44400000000016 67.63400000000001 159.63000000000014 70.79900000000002 142.70400000000015 77.04100000000001 C 139.07300000000015 78.379 135.05200000000016 76.522 133.71500000000015 72.89500000000001 C 132.37700000000015 69.26800000000001 134.23400000000015 65.24300000000001 137.86100000000013 63.90500000000001 C 156.34300000000013 57.09000000000001 175.78700000000015 53.63400000000001 195.65100000000012 53.63400000000001 C 222.66400000000013 53.63400000000001 249.27500000000012 60.17600000000001 273.0410000000001 72.60900000000001 L 280.3350000000001 59.97500000000001 C 255.03500000000008 46.58700000000001 226.21300000000008 39.001000000000005 195.6510000000001 39.001000000000005 C 165.0890000000001 39.001000000000005 136.2660000000001 46.587 110.9660000000001 59.976000000000006 L 186.8850000000001 191.475 C 188.8180000000001 194.823 187.6700000000001 199.10399999999998 184.32200000000012 201.037 C 180.97200000000012 202.971 176.69200000000012 201.823 174.75900000000013 198.475 L 113.148 91.756 C 76.25899999999999 115.367 51.391999999999996 153.187 44.527 196.506 C 43.922000000000004 200.324 40.333 202.933 36.517 202.324 C 32.699000000000005 201.71900000000002 30.094 198.133 30.699000000000005 194.315 C 38.22800000000001 146.807 65.58200000000001 105.362 106.14099999999999 79.62 L 98.85399999999998 66.998 C 49.751 98.042 16.48 151.955 14.133 213.657 L 166.001 213.657 C 169.86700000000002 213.657 173.001 216.791 173.001 220.657 C 173.001 224.52300000000002 169.86700000000002 227.657 166.001 227.657 L 42.792 227.657 C 44.726 270.172 64.211 309.914 96.923 337.568 C 99.875 340.06399999999996 100.245 344.481 97.749 347.433 C 95.25399999999999 350.385 90.83699999999999 350.757 87.884 348.26 C 52.018 317.93899999999996 30.72 274.304 28.779000000000003 227.65699999999998 L 14.133 227.65699999999998 C 16.480999999999998 289.359 49.751000000000005 343.27 98.85499999999999 374.31399999999996 L 174.762 242.83599999999996 C 176.697 239.48799999999994 180.977 238.34099999999995 184.325 240.27399999999994 C 187.67299999999997 242.20699999999994 188.82 246.48799999999994 186.88799999999998 249.83599999999996 L 125.26999999999998 356.56399999999996 C 146.90499999999997 367.77799999999996 171.09799999999998 373.67699999999996 195.654 373.67699999999996 C 213.877 373.67699999999996 231.703 370.508 248.637 364.25699999999995 C 252.265 362.9189999999999 256.289 364.77399999999994 257.628 368.3999999999999 C 258.966 372.0259999999999 257.111 376.0519999999999 253.48399999999998 377.3909999999999 C 234.993 384.2169999999999 215.53599999999997 387.6779999999999 195.65299999999996 387.6779999999999 C 168.64099999999996 387.6779999999999 142.02799999999996 381.1349999999999 118.26199999999996 368.6999999999999 L 110.96799999999996 381.33499999999987 C 136.26799999999997 394.72299999999984 165.09099999999995 402.3099999999999 195.65299999999996 402.3099999999999 C 225.125 402.309 254.161 395.147 280.067 381.543 z M 345.613 333.125 C 346.64 333.656 347.738 333.907 348.819 333.907 C 351.35400000000004 333.907 353.8 332.526 355.045 330.118 L 355.901 328.46 C 357.67400000000004 325.025 356.329 320.80199999999996 352.89300000000003 319.02799999999996 C 349.456 317.25199999999995 345.237 318.60099999999994 343.461 322.03499999999997 L 342.605 323.693 C 340.832 327.128 342.178 331.351 345.613 333.125 z M 319.987 299.362 C 321.014 299.89300000000003 322.112 300.144 323.194 300.144 C 325.72900000000004 300.144 328.175 298.76300000000003 329.41900000000004 296.355 L 330.27500000000003 294.697 C 332.04900000000004 291.262 330.704 287.04 327.26900000000006 285.265 C 323.83700000000005 283.491 319.6120000000001 284.837 317.83700000000005 288.27099999999996 L 316.98100000000005 289.929 C 315.207 293.365 316.553 297.588 319.987 299.362 z M 448.898 253.32 C 448.898 288.337 439.536 322.696 421.82300000000004 352.685 C 404.63100000000003 381.791 380.062 406.095 350.77500000000003 422.967 C 349.70300000000003 423.585 347.57300000000004 424.265 345.46000000000004 423.65999999999997 C 343.67400000000004 423.14899999999994 342.139 421.99999999999994 341.213 420.39 L 247.18 256.809 C 245.935 254.64200000000002 245.93800000000002 251.97700000000003 247.19 249.81400000000002 C 248.441 247.651 250.751 246.32000000000002 253.249 246.32000000000002 L 441.899 246.32000000000002 C 445.765 246.32 448.898 249.454 448.898 253.32 z M 434.763 260.32 L 265.346 260.32 L 335.50800000000004 382.374 C 371.43500000000006 359.458 396.168 322.832 403.793 280.86800000000005 C 404.484 277.06500000000005 408.116 274.53900000000004 411.933 275.232 C 415.73699999999997 275.923 418.259 279.567 417.568 283.37100000000004 C 409.205 329.39700000000005 381.995 369.53900000000004 342.493 394.523 L 349.791 407.22 C 400.485 375.336 432.438 320.095 434.763 260.32 z M 220.884 339.619 L 222.75 339.619 C 226.616 339.619 229.75 336.485 229.75 332.619 C 229.75 328.75300000000004 226.616 325.619 222.75 325.619 L 220.884 325.619 C 217.01799999999997 325.619 213.884 328.75300000000004 213.884 332.619 C 213.884 336.485 217.018 339.619 220.884 339.619 z M 199.384 335.786 C 199.384 348.152 189.32299999999998 358.212 176.957 358.212 C 164.593 358.212 154.533 348.152 154.533 335.786 C 154.533 323.42 164.593 313.36 176.957 313.36 C 189.323 313.359 199.384 323.42 199.384 335.786 z M 185.384 335.786 C 185.384 331.14 181.60399999999998 327.36 176.957 327.36 C 172.31199999999998 327.36 168.533 331.14 168.533 335.786 C 168.533 340.432 172.31199999999998 344.212 176.957 344.212 C 181.604 344.211 185.384 340.432 185.384 335.786 z M 186.537 279.413 C 186.537 283.279 189.671 286.413 193.537 286.413 L 195.40200000000002 286.413 C 199.26800000000003 286.413 202.40200000000002 283.279 202.40200000000002 279.413 C 202.40200000000002 275.547 199.26800000000003 272.413 195.40200000000002 272.413 L 193.537 272.413 C 189.671 272.413 186.537 275.547 186.537 279.413 z M 194.721 147.535 L 196.588 147.535 C 200.454 147.535 203.588 144.401 203.588 140.535 C 203.588 136.66899999999998 200.454 133.535 196.588 133.535 L 194.721 133.535 C 190.855 133.535 187.721 136.66899999999998 187.721 140.535 C 187.721 144.401 190.854 147.535 194.721 147.535 z M 139.072 262.14 C 139.072 274.506 129.011 284.566 116.64500000000001 284.566 C 104.28000000000002 284.566 94.22000000000001 274.506 94.22000000000001 262.14 C 94.22000000000001 249.774 104.28000000000002 239.714 116.64500000000001 239.714 C 129.012 239.714 139.072 249.774 139.072 262.14 z M 125.072 262.14 C 125.072 257.49399999999997 121.292 253.714 116.64500000000001 253.714 C 111.99900000000001 253.714 108.22000000000001 257.49399999999997 108.22000000000001 262.14 C 108.22000000000001 266.786 111.99900000000001 270.566 116.64500000000001 270.566 C 121.292 270.565 125.072 266.786 125.072 262.14 z" stroke-linecap="round" />
</g>
<g transform="matrix(0.63 0 0 0.63 540 817.2)"  >
<g style="" vector-effect="non-scaling-stroke"   >
		<g transform="matrix(4.12 0 0 4.12 0 0)"  >
<path style="stroke: none; stroke-width: 1; stroke-dasharray: none; stroke-linecap: butt; stroke-dashoffset: 0; stroke-linejoin: miter; stroke-miterlimit: 4; fill: rgb(46,46,46); fill-opacity: 0.04; fill-rule: nonzero; opacity: 1;" vector-effect="non-scaling-stroke"  transform=" translate(-97.11, -97.11)" d="M 186.54 118.447 C 178.974 79.178 137.063 54.915000000000006 114.978 24.47200000000001 C 108.04899999999999 14.922000000000008 97.81899999999999 -1.1799999999999926 84.187 0.06900000000000972 C 69.465 1.4190000000000098 72.423 18.16700000000001 78.477 26.85800000000001 C 78.209 27.63900000000001 78.284 28.536000000000012 78.937 29.21000000000001 C 80.756 31.086000000000013 82.586 32.942000000000014 84.416 34.80000000000001 C 56.113 34.34700000000001 38.458 68.38000000000001 28.762999999999998 90.55600000000001 C 15.581999999999999 120.70500000000001 5.994999999999997 156.746 7.200999999999997 189.933 C 7.296999999999997 192.57 10.183999999999997 194.658 12.570999999999998 193.861 C 12.781999999999998 193.944 12.993999999999998 194.02599999999998 13.253999999999998 194.051 C 40.346999999999994 196.63899999999998 54.983 167.399 77.674 158.059 C 103.424 147.46 129.394 143.571 156.428 140.915 C 156.926 141.152 157.427 141.369 157.925 141.614 C 159.71900000000002 142.496 161.35500000000002 141.89000000000001 162.371 140.754 C 163.788 140.858 165.204 140.963 166.621 141.06699999999998 C 167.717 141.14799999999997 168.799 141.29299999999998 169.83800000000002 141.266 C 172.64300000000003 143.12199999999999 175.57800000000003 144.10899999999998 178.38100000000003 143.20399999999998 C 187.224 140.349 187.972 125.883 186.54 118.447 z M 54.02 94.51 C 49.68000000000001 102.611 41.399 107.571 33.417 103.355 C 37.226 93.10900000000001 42.132000000000005 81.49000000000001 48.534000000000006 70.99600000000001 C 56.939 76.761 59.161 84.915 54.02 94.51 z M 89.013 146.293 C 78.209 149.769 68.077 153.716 59.168000000000006 160.888 C 46.509 171.08 33.83 185.921 17.246 189.2 C 33.319 170.408 50.79899999999999 152.97799999999998 72.441 140.596 C 93.62100000000001 128.477 115.379 127.33500000000001 136.849 133.40800000000002 C 120.103 136.091 103.078 141.768 89.013 146.293 z M 41.495 134.906 C 47.546 128.875 55.29 132.154 59.542 138.34900000000002 C 59.809000000000005 138.73700000000002 60.119 139.03300000000002 60.446000000000005 139.27900000000002 C 53.075 143.95900000000003 45.971000000000004 149.36700000000002 39.17 155.264 C 39.144 155.19 39.145 155.119 39.112 155.04500000000002 C 35.997 148.033 35.746 140.636 41.495 134.906 z M 155.568 131.896 C 123.77400000000002 115.26799999999999 93.46300000000002 120.31299999999999 66.44800000000001 135.66199999999998 C 66.346 135.31099999999998 66.203 134.95699999999997 65.96400000000001 134.59599999999998 C 59.421000000000014 124.69199999999998 47.56600000000002 120.14199999999997 37.512000000000015 128.18399999999997 C 28.408000000000015 135.46599999999998 26.033000000000015 149.77799999999996 35.29400000000001 157.99299999999997 C 35.445000000000014 158.12699999999995 35.60300000000001 158.19299999999996 35.75800000000001 158.28699999999998 C 28.62100000000001 164.74099999999999 21.83000000000001 171.688 15.448000000000011 178.861 C 16.603000000000012 154.81599999999997 23.70100000000001 130.552 31.64500000000001 108.22999999999999 C 31.70700000000001 108.05599999999998 31.77300000000001 107.87599999999999 31.83500000000001 107.70199999999998 C 53.94700000000001 122.25199999999998 79.35100000000001 77.30499999999998 52.48600000000001 64.97399999999999 C 61.56000000000001 52.07699999999999 73.269 41.88899999999999 88.49200000000002 39.87599999999999 C 88.76400000000002 39.83999999999999 88.98200000000001 39.74599999999999 89.20600000000002 39.65899999999999 C 104.43100000000001 55.04799999999999 119.51500000000001 70.33999999999999 131.293 88.809 C 139.683 101.966 147.606 115.392 157.155 127.769 C 158.018 128.889 159.187 130.439 160.536 132.11700000000002 C 158.898 131.992 157.242 131.917 155.568 131.896 z M 179.387 132.217 C 177.048 145.21900000000002 161.571 123.27400000000002 159.221 120.07200000000002 C 152.441 110.82800000000002 146.516 100.94900000000001 140.542 91.17600000000002 C 125.45 66.49 107.629 46.179 85.011 28.206 C 85.228 27.394 85.143 26.477999999999998 84.479 25.648 C 77.399 13.826 78.485 7.669999999999998 87.735 7.186 C 91.692 7.88 95.156 11.926 97.855 14.587 C 102.5 19.168 106.254 24.644 110.046 29.924999999999997 C 116.22200000000001 38.525999999999996 124.147 45.964999999999996 131.45100000000002 53.583999999999996 C 150.296 73.236 184.87 101.752 179.387 132.217 z" stroke-linecap="round" />
</g>
		<g transform="matrix(4.12 0 0 4.12 -6.38 -14.81)"  >
<path style="stroke: none; stroke-width: 1; stroke-dasharray: none; stroke-linecap: butt; stroke-dashoffset: 0; stroke-linejoin: miter; stroke-miterlimit: 4; fill: rgb(46,46,46); fill-opacity: 0.04; fill-rule: nonzero; opacity: 1;" vector-effect="non-scaling-stroke"  transform=" translate(-95.56, -93.51)" d="M 118.166 91.632 C 116.426 78.21700000000001 100.09299999999999 65.34400000000001 86.95599999999999 72.462 C 85.633 73.179 85.27399999999999 74.674 85.63099999999999 75.952 C 77.75999999999999 77.994 72.08899999999998 84.243 72.86599999999999 93.63 C 73.73599999999999 104.137 81.79399999999998 114.584 92.46999999999998 116.33699999999999 C 106.145 118.583 119.932 105.259 118.166 91.632 z M 91.623 108.217 C 85.66900000000001 106.417 81.38000000000001 99.50999999999999 80.598 93.63 C 79.467 85.124 85.126 80.53699999999999 92.944 78.851 C 93.35900000000001 78.762 93.641 78.55199999999999 93.857 78.301 C 101.991 79.285 109.443 83.767 110.657 93.003 C 111.922 102.638 100.463 110.891 91.623 108.217 z" stroke-linecap="round" />
</g>
</g>
</g>
</svg>